<svg width="25" height="24" viewBox="0 0 25 24" fill="none" xmlns="http://www.w3.org/2000/svg">
<path d="M20.1602 12.1813C20.1602 11.6546 20.1125 11.1546 20.0308 10.668H12.334V13.6746H16.7409C16.5434 14.6613 15.9644 15.4946 15.1062 16.0613V18.0613H17.7354C19.2747 16.668 20.1602 14.6146 20.1602 12.1813Z" fill="#4285F4"/>
<path d="M12.334 20.0006C14.5408 20.0006 16.3867 19.2806 17.7353 18.0606L15.1062 16.0606C14.3706 16.5406 13.4374 16.8339 12.334 16.8339C10.2021 16.8339 8.39702 15.4273 7.74994 13.5273H5.03906V15.5873C6.38088 18.2006 9.13944 20.0006 12.334 20.0006Z" fill="#34A853"/>
<path d="M7.75002 13.5274C7.57973 13.0474 7.49119 12.534 7.49119 12.0007C7.49119 11.4674 7.58654 10.954 7.75002 10.474V8.41406H5.03913C4.46134 9.52507 4.16016 10.754 4.16016 12.0007C4.16016 13.2474 4.46134 14.4764 5.03913 15.5874L7.75002 13.5274Z" fill="#FBBC05"/>
<path d="M12.334 7.16667C13.5396 7.16667 14.6158 7.57333 15.4672 8.36667L17.7966 6.08667C16.3867 4.79333 14.5408 4 12.334 4C9.13944 4 6.38088 5.8 5.03906 8.41333L7.74994 10.4733C8.39702 8.57333 10.2021 7.16667 12.334 7.16667Z" fill="#EA4335"/>
</svg>
