<svg width="14" height="14" viewBox="0 0 14 14" fill="none" xmlns="http://www.w3.org/2000/svg">
<path d="M13.6601 6.38682C13.5489 4.61493 12.749 2.95683 11.4315 1.76682C10.1109 0.574378 8.37835 -0.0577309 6.60015 0.00415025C4.8218 0.0645115 3.13681 0.814832 1.90215 2.09615C0.671015 3.37446 -0.0115698 5.08343 0.000148419 6.85815V7.01148C0.00770397 7.33459 0.0388151 7.65548 0.0934817 7.97415C0.371088 9.63459 1.25476 11.133 2.57348 12.1795C3.89429 13.2288 5.55559 13.7542 7.23955 13.6553C8.92351 13.5564 10.5119 12.8401 11.7008 11.6435C12.8862 10.4491 13.5867 8.85768 13.6668 7.17682V6.86482C13.6668 6.75815 13.6668 6.53948 13.6601 6.38682ZM12.6401 7.44948H10.5455L8.74415 10.4521C8.68416 10.5502 8.59984 10.631 8.49938 10.6869C8.39893 10.7427 8.28574 10.7716 8.17081 10.7708H8.13082C8.00846 10.7645 7.89021 10.7245 7.78907 10.6554C7.68793 10.5862 7.6078 10.4905 7.55748 10.3788L5.41615 5.56948L4.08282 7.79482C4.02285 7.89307 3.93846 7.97412 3.83787 8.03008C3.73728 8.08604 3.62392 8.115 3.50882 8.11415H1.14682C1.05291 7.70211 1.00594 7.28076 1.00682 6.85815V6.78482H3.12815L4.93482 3.78948C4.99821 3.68528 5.08899 3.60047 5.19725 3.54428C5.30551 3.48809 5.42711 3.46268 5.54881 3.47082C5.67001 3.47835 5.78685 3.51885 5.88672 3.58793C5.98658 3.65702 6.06569 3.75206 6.11548 3.86282L8.26348 8.67215L9.59748 6.44682C9.65657 6.34742 9.74049 6.26511 9.84101 6.20795C9.94153 6.1508 10.0552 6.12077 10.1708 6.12082H12.6255C12.6588 6.36615 12.6744 6.61193 12.6721 6.85815C12.6736 7.05577 12.6624 7.25328 12.6388 7.44948" fill="#6B7280"/>
</svg>
